<?xml version="1.0" encoding="UTF-8" standalone="no"?><!DOCTYPE svg PUBLIC "-//W3C//DTD SVG 1.1//EN" "http://www.w3.org/Graphics/SVG/1.1/DTD/svg11.dtd"><svg width="100%" height="100%" viewBox="0 0 1920 1080" version="1.1" xmlns="http://www.w3.org/2000/svg" xmlns:xlink="http://www.w3.org/1999/xlink" xml:space="preserve" xmlns:serif="http://www.serif.com/" style="fill-rule:evenodd;clip-rule:evenodd;stroke-linecap:round;stroke-linejoin:round;stroke-miterlimit:1.5;"><g id="bg"><rect id="bg-rect" x="0" y="0" width="1920" height="1080"/></g><g id="outline"><g id="ru-acog"></g><g id="nato-reflex"><path id="nato-reflex-body" d="M727,1080l32,-32l11,-8l5,0l7,-9l10,-6l0,-34l-30,0l-7,-15l-4,-29l0,-41l2,-53l4,-40l3,-15l3,-8l5,-6l4,-2l18,-1l-1,-146l1,-5l3,-5l5,-3l19,-9l9,-178l6,-16l13,-8l15,-1l17,4c0,0 36.361,7.469 36,7c-0.361,-0.469 24.929,1.993 25,2l44,0c0.071,-0.007 25.361,-2.469 25,-2c-0.361,0.469 36,-7 36,-7l17,-4l15,1l13,8l6,16l9,178l19,9l5,3l3,5l1,5l-1,151l-15,3l-41,0l62,129l1,112l-10,12l11,38l-411,0Zm276,-467l48,-2l1,-117l-23,-17l-18,-10l-21,-8l-17,-3l-26,0l-17,3l-21,8l-18,10l-23,17l1,117l48,2l86,0Z" style="fill:#0041ff;fill-opacity:0.25098;stroke:#0041ff;stroke-width:2px;"/><path id="nato-reflex-reticule" d="M964,547l-8,0l4,-7l4,7Z" style="fill:#0041ff;"/></g><g id="nato-holographic"><path id="nato-holographic-body" d="M700,1066l-16,-1l-5,-6l0,-62l-8,-4l-2,-10l-2,-4l-0.218,-22.411l-25.51,-3.108l-5.109,-8.349l0.179,-14.549l4.594,-16.042l5.986,-7.889l4.411,-1.308l14.97,1.915l-0.303,-31.259l7,-99l5,-132l3,-27l12,-17l12,-9l11,-11l11,-13l3,-13l7,-128l6,-20l9,-19l19,-18l18,-9l15,-5l19,-2l50,-4l59,-3l56,0l59,3l48,4l19,2l15,5l18,9l19,18l9,19l6,20l7,125l14,77l11,155l6,75l3,112l-3,13l-3,6l-15,-1l-2,-5l-7,3l-11,12l-3,31l-9,19l8,14l0,8l6,9l-419,0l9,-16l-17,-7l-11,-22l-1,-24l-7,-3l-26,53l-11,5Zm347,-426l22,-6l10,-7l6,-8l3,-8l4,-105l-1,-27l-3,-15l-3,-1l-56,-12l-41,-5l-56,0l-41,5l-56,12l-7,3l-3,13l-1,27l6,105l3,8l6,8l10,7l22,6l176,0Z" style="fill:#36ff00;fill-opacity:0.25098;stroke:#36ff00;stroke-width:2px;"/><path id="nato-holographic-reticule" d="M961,557l-2,0l0,-3.035c-6.931,-0.49 -12.475,-6.034 -12.965,-12.965l-3.035,0l0,-2l3.035,0c0.49,-6.931 6.034,-12.475 12.965,-12.965l0,-3.035l2,0l0,3.035c6.93,0.49 12.475,6.034 12.965,12.965l3.035,0l0,2l-3.035,0c-0.49,6.931 -6.035,12.475 -12.965,12.965l0,3.035Zm-1,-29c6.623,0 12,5.377 12,12c0,6.623 -5.377,12 -12,12c-6.623,0 -12,-5.377 -12,-12c0,-6.623 5.377,-12 12,-12Zm0,11c0.552,0 1,0.448 1,1c0,0.552 -0.448,1 -1,1c-0.552,0 -1,-0.448 -1,-1c0,-0.552 0.448,-1 1,-1Z" style="fill:#36ff00;"/></g><g id="nato-reddot"><path id="nato-reddot-body" d="M1252,1080l-584,0l85,-224l19,-25l18,-15l29,-5l-43.396,-8.669l-0.604,-56.331l-5,0l-32,-108l-4,-36l0.12,-0.721c-5.295,-19.534 -8.12,-40.079 -8.12,-61.279c0,-48.413 14.734,-93.412 39.959,-130.753l0.041,-0.247l8,-16l87,-89l2,-10l13,-12l11,-2l12,-11l5,0l0,-16l24,0l0,16l64,0l0,-16l24,0l0,16l5,0l12,11l11,2l13,12l2,10l87,89l67,49l31,-1l17,13l8,29l2,22l2,0l1,23l-1,2l0,14l18,0l1,25l-19,0l-2,19l-7,31l-18,17l-4,23l-9,23l-14,15l-7,-1l-7,45l-50.629,3.2l0.629,53.8l-43,9l18,3l22,14l20,25l80,231Zm-292,-680c77.268,0 140,62.732 140,140c0,77.268 -62.732,140 -140,140c-77.268,0 -140,-62.732 -140,-140c0,-77.268 62.732,-140 140,-140Z" style="fill:#f00;fill-opacity:0.25098;stroke:#f00;stroke-width:2px;"/><circle id="nato-reddot-reticule" cx="960" cy="540" r="3" style="fill:#fb0000;"/></g><g id="ru-reflex"><path id="ru-reflex-body" d="M925,644l25.086,0l-0.086,-10l-5,0l0,-18l5,0l0,-22l0.982,-0.785c-4.214,-2.883 -6.982,-7.728 -6.982,-13.215c0,-4.645 1.984,-8.831 5.15,-11.755l2.034,2.205c-2.572,2.375 -4.184,5.776 -4.184,9.55c0,4.79 2.596,8.979 6.458,11.234l1.542,-1.234l0,-4l2,-2l1,0l0,-10l4,0l0,10l1,0l2,2l0,4l1.542,1.234c3.862,-2.255 6.458,-6.444 6.458,-11.234c0,-3.774 -1.612,-7.175 -4.184,-9.55l2.034,-2.205c3.166,2.924 5.15,7.11 5.15,11.755c0,5.487 -2.768,10.332 -6.982,13.215l0.982,0.785l0,22l5,0l0,18l-5,0l-0.086,10l21.086,0l22,26l26,66l4,6l4,0l0,5l9,0l4,16l9,0l2,52l-6,4l2,21l6,15l22,16l19,20l40,-1l1,-8l4,-4l5,0l5,4l4,7l55,-1l5,-5l50,-17l32,-1l7,-7l12,0l28,25l0,4l31,27l4,0l101,84l0,6l74,65l10,0l11,11l-933,0l4,-12l6,-12l5,0l13,4l15,-35l13,-24l27,-52l26,-42c0,0 0.224,-12.708 15,-29c14.776,-16.292 41,-35 41,-35l12,-12l7,-9l8,-20l3,-5l2,-1l0,-31l10,1l5,-17l6,0l1,-6l6,0l15,-41l-46,-23l-26,0l0,-12l-14,0l-8,-11c0,0 -2,-8.278 -2,-37c0,-28.722 2,-45 2,-45l10,-9l3,0l11,-10l31,-3l19,-44l-0.137,0.048c13.226,-29.402 44.144,-50.048 80.137,-50.048l0.265,0c45.136,0.144 81.735,36.832 81.735,82c0,29.481 -15.592,55.349 -38.972,69.801l-4.722,-7.661c20.814,-12.866 34.694,-35.895 34.694,-62.14c0,-40.289 -32.71,-72.999 -73,-73l-0.19,0c-32.363,0.073 -60.122,18.631 -71.849,44.981l0.039,0.019l-16,40l31,0l10,-5l5,-1l9,0c0,0 9,1.922 9,13c0,11.078 -9,12 -9,12l-9,10l0,58l7,5Z" style="fill:#8c00ff;fill-opacity:0.25098;stroke:#8c00ff;stroke-width:2px;"/><path id="ru-reflex-reticule" d="M959,552l0,-5l2,0l0,5l-2,0Zm5,-7l-1,2l-3,-4.5l-3,4.5l-1,-2l4,-6l4,6Zm-11,-4l-13,0l0,-2l13,0l0,2Zm27,-2l0,2l-13,0l0,-2l13,0Z" style="fill:#8c00ff;stroke:#8c00ff;stroke-width:1px;"/></g><g id="ru-holographic"><path id="ru-holographic-body" d="M1103,1080l-266,0l-1,-30l-61,1l-14,-3l-3,-4l-2,-8l0,-61l6,-29l0,-43l-21,-1c0,0 -22,-5.418 -22,-123c0,-117.582 29,-127 29,-127l17,-1l28,-232c0,0 3.231,-62 65,-62c61.769,0 102,-1 102,-1l0.467,0.011c4.645,0.11 43.623,0.989 101.533,0.989c61.769,0 65,62 65,62l38,267l4,256l14,38l0,61l-2,8l-3,4l-14,2l-66,-3l5,28Zm-88,-444c0.113,-0.001 40,-0.411 40,-48c0,-47.657 0,-48 0,-48c0,0 -6.804,-90.645 -94.484,-90.999l-0.516,-0.001c-88.17,0 -95,91 -95,91c0,0 0,0.343 0,48c0,47.657 40,48 40,48l110,0Zm-140,-180c12.935,-10.9 38,-12 38,-12c0,0 -18.982,10.63 -30,21c-11.018,10.37 -19,24 -19,24c0,0 -1.935,-22.1 11,-33Zm170,0c-12.935,-10.9 -38,-12 -38,-12c0,0 18.982,10.63 30,21c11.018,10.37 19,24 19,24c0,0 1.935,-22.1 -11,-33Z" style="fill:#0ff;fill-opacity:0.25098;stroke:#0ff;stroke-width:2px;"/><path id="ru-holographic-reticule" d="M960,522c9.934,0 18,8.066 18,18c0,9.934 -8.066,18 -18,18c-9.934,0 -18,-8.066 -18,-18c0,-9.934 8.066,-18 18,-18Zm1,33.969c8.366,-0.517 15,-7.474 15,-15.969c0,-8.831 -7.169,-16 -16,-16c-8.831,0 -16,7.169 -16,16c0,8.495 6.634,15.452 15,15.969l0,-13.969l2,0l0,13.969Zm-3,-16.969l0,2l-13,0l0,-2l13,0Zm17,0l0,2l-13,0l0,-2l13,0Z" style="fill:#0ff;"/></g><g id="ru-reddot"><path id="ru-reddot-body" d="M1172,1080l-410,0l7,-11l28,-66l-29,0l11,-310l1,-7l7,-9l20,-14l0,-18l2,-3l4,-3l12,-5l11,-2l0,-12l12,-7l12,0l2,-12l2.196,-66.856c3.189,-47.5 44.895,-85.144 95.804,-85.144l0.596,0.002c50.638,0.292 92.031,37.827 95.208,85.142l2.196,66.856l6,7l12,0l12,7l0,12l11,2l12,5l4,3l2,3l0,18l18.571,13l54.429,0c0.15,0.223 23,34.429 23,127c0,92.569 -16.888,96.972 -17,97l-36,0l6,106l-14,2l0,9l18,48l2,20Zm-212,-603c34.771,0 63,28.229 63,63c0,34.771 -28.229,63 -63,63c-34.771,0 -63,-28.229 -63,-63c0,-34.771 28.229,-63 63,-63Z" style="fill:#ffbc00;fill-opacity:0.25098;stroke:#ffbc00;stroke-width:2px;"/><path id="ru-reddot-reticule" d="M960,520c11.038,0 20,8.962 20,20c0,11.038 -8.962,20 -20,20c-11.038,0 -20,-8.962 -20,-20c0,-11.038 8.962,-20 20,-20Zm0,2c9.934,0 18,8.066 18,18c0,9.934 -8.066,18 -18,18c-9.934,0 -18,-8.066 -18,-18c0,-9.934 8.066,-18 18,-18Zm-8,33l0,-2l8,-9l8,9l0,2l-8,-9l-8,9Zm8,-17c1.104,0 2,0.896 2,2c0,1.104 -0.896,2 -2,2c-1.104,0 -2,-0.896 -2,-2c0,-1.104 0.896,-2 2,-2Z" style="fill:#ffbc00;"/></g></g></svg>